<?xml version="1.0" encoding="utf-8"?>
<!-- Generator: Adobe Illustrator 22.0.1, SVG Export Plug-In . SVG Version: 6.00 Build 0)  -->
<svg version="1.1" id="レイヤー_1" xmlns="http://www.w3.org/2000/svg" xmlns:xlink="http://www.w3.org/1999/xlink" x="0px"
	 y="0px" viewBox="0 0 1000 1000" style="enable-background:new 0 0 1000 1000;" xml:space="preserve">
<style type="text/css">
	.st0{fill:#0B1048;}
	.st1{fill:#0B1049;}
	.st2{fill:#FCFCFC;}
	.st3{fill:#F5F5F5;}
	.st4{fill:#B1B2C4;}
	.st5{fill:#EF224F;}
	.st6{fill:#FED026;}
	.st7{fill:#151950;}
	.st8{fill:#11164D;}
	.st9{fill:#10154C;}
	.st10{fill:#1E2357;}
	.st11{fill:#F6F6F6;}
</style>
<g>
	<path class="st0" d="M142.6,663.5c-1.3-3.1-3.5-5.6-5.4-8.3c-32.8-48.6-53.8-102-63-159.9c-6.2-38.9-6.7-77.9-0.9-116.8
		c14.4-97.5,58.6-179,132.6-244c51.7-45.3,111.7-74.6,178.9-88.8c36.7-7.8,73.9-10.1,111.3-7.1c84.5,7,159.3,37.6,224.4,91.9
		c7.8,6.5,15.2,13.6,22.8,20.4c7.1,8.2,14.9,15.7,22,24c13.4,15.6,25.6,32,36.4,49.4c18.1,29.3,32.4,60.3,42.4,93.3
		c5.6,18.3,10.1,36.9,12.7,55.9c0.9,6.2,1.8,12.4,2.7,18.6c0.6,1.4-0.1,2.9,0.5,4.3c0.1,1,0.1,2.1,0.2,3.1c0.5,1.4-0.1,2.9,0.5,4.3
		c0.1,1.7,0.1,3.3,0.2,5c0.6,2.1-0.2,4.2,0.5,6.3c0.1,2.6,0.1,5.2,0.2,7.7c0.4,7.5,0.3,15.1,0,22.6c-0.1,2.6-0.1,5.1-0.2,7.7
		c-0.7,2.3,0.1,4.7-0.5,7c-0.1,1.4-0.1,2.9-0.2,4.3c-0.6,1.4,0,2.9-0.5,4.3c-0.1,1-0.1,2.1-0.2,3.1c-0.6,1.1,0,2.4-0.5,3.6
		c-0.1,0.8-0.1,1.7-0.2,2.5c-0.6,1.1,0,2.4-0.5,3.5c-2.3,14.7-4.6,29.4-8.1,43.9c-5.8,24.2-13.7,47.6-23.8,70.3
		c-11,24.7-24.5,47.9-40.3,69.8c-2.7,3.8-5.3,7.6-8.3,11.1c-1.5,1.8-1,2.8,0.1,4.3c7.6,10.5,15.2,21,22.8,31.5
		c4.4,6.1,8.7,12.4,13.3,18.5c1.1,1.5,0.7,2-0.4,2.9c-19.2,14.9-38.5,29.7-57.7,44.6c-15.4,12-30.7,24-46.1,36
		c-2.4,1.9-4.9,3.8-7.2,5.8c-1.8,1.6-3.1,1.7-4.6-0.6c-5-7.3-10.2-14.5-15.4-21.7c-4.9-6.9-9.9-13.7-14.8-20.7
		c-1.2-1.8-2.3-1.8-4-0.8c-10.2,6.1-20.8,11.4-31.5,16.5c-21.7,10.1-44.1,18.1-67.2,24.2c-14.6,3.9-29.4,6.6-44.3,9.1
		c-4.1,0.7-8.2,1.1-12.4,1.6c-1.2,0.5-2.5,0-3.6,0.5c-1,0.1-2,0.1-3,0.2c-1.4,0.5-2.9-0.1-4.3,0.5c-1.5,0.1-2.9,0.1-4.4,0.2
		c-1.8,0.6-3.7-0.2-5.5,0.5c-1.9,0.1-3.9,0.1-5.8,0.2c-4,0.5-8.1,0.1-12.1,0.2c-1.2,0-2.4-0.2-3.6,0.3c-0.4-0.3-0.9-0.3-1.3,0
		c-4-0.6-8.1-0.1-12.1-0.3c-1.2-0.1-2.4,0.2-3.6-0.2c-2.1-0.1-4.3-0.1-6.4-0.2c-1.8-0.7-3.7,0.1-5.6-0.5c-1.4-0.1-2.9-0.1-4.3-0.2
		c-1.2-0.5-2.5,0-3.7-0.5c-1.2-0.1-2.4-0.1-3.7-0.2c-1.2-0.5-2.5,0-3.7-0.5c-7.5-0.9-15.1-1.6-22.6-2.9c-7.1-1.2-14.1-3-21.2-4.5
		c-15.3-3.2-30.2-7.5-44.9-12.7c-11-3.9-22-8.1-32.6-13.1c-22.9-10.8-45-23.1-65.6-38.1c-11.2-8.1-22.1-16.5-32.4-25.7
		c-6.2-5.6-12.6-11-18.3-17.1c-14.3-15.4-28.6-30.9-40.5-48.4C143.5,664.4,143,664,142.6,663.5z"/>
	<path class="st1" d="M922.1,909.5c-2,18.7-9.1,35.1-23.1,47.8c-17.7,16.2-38.7,22.2-62.5,18.6c-16.1-2.5-29.1-10.3-40.6-21.5
		c-7.1-6.9-11.9-15.6-17.7-23.5c-16.8-23-33.2-46.3-49.8-69.4c-5-6.9-9.9-13.9-14.9-20.8c-1.1-1.5,0-2.2,0.8-2.8
		c12.1-9.3,24.2-18.5,36.3-27.8c12.4-9.6,24.7-19.4,37-29c12.7-9.9,25.4-19.6,38.1-29.4c1.3-1,2.3-1.9,3.9,0.4
		c17.3,24.4,34.9,48.6,52.3,72.9c10.4,14.5,20.8,29,31.2,43.4c4.5,6.3,5.7,13.9,7.5,21.2c0.7,2.9,1,5.8,1.5,8.8
		C922.5,901.9,922.5,905.7,922.1,909.5z"/>
	<path class="st2" d="M861.5,445.5c0-7.5,0-15.1,0-22.6c1.2,2.3,0.6,4.8,0.5,7.2C861.8,435.1,862.7,440.3,861.5,445.5z"/>
	<path class="st2" d="M466.3,830.1c5.2-0.7,10.4-0.5,15.7-0.5C476.8,830.8,471.5,829.9,466.3,830.1z"/>
	<path class="st2" d="M449.4,829.6c5.2,0,10.5-0.1,15.7,0.5C459.8,829.9,454.5,830.8,449.4,829.6z"/>
	<path class="st2" d="M922.1,909.5c0-3.8,0-7.5,0-11.3C923.1,901.9,923,905.7,922.1,909.5z"/>
	<path class="st2" d="M860.8,460.1c-0.1-2.3-0.1-4.7,0.5-7C861.1,455.5,862,457.9,860.8,460.1z"/>
	<path class="st2" d="M861.3,415.1c-0.7-2-0.5-4.2-0.5-6.3C861.9,410.8,861.2,413,861.3,415.1z"/>
	<path class="st2" d="M487.8,829.4c1.8-0.6,3.7-0.5,5.5-0.5C491.6,830,489.6,829.3,487.8,829.4z"/>
	<path class="st2" d="M437.4,828.9c1.9-0.1,3.8-0.2,5.6,0.5C441.1,829.3,439.1,830,437.4,828.9z"/>
	<path class="st2" d="M497.7,828.7c1.4-0.6,2.8-0.6,4.3-0.5C500.7,829.3,499.1,828.6,497.7,828.7z"/>
	<path class="st2" d="M859.9,396.4c-0.6-1.4-0.6-2.8-0.5-4.3C860.5,393.5,859.9,395,859.9,396.4z"/>
	<path class="st2" d="M860.6,403.8c-0.7-1.4-0.6-2.9-0.5-4.3C861.2,400.8,860.5,402.4,860.6,403.8z"/>
	<path class="st2" d="M860.1,468.8c-0.1-1.5-0.2-3,0.5-4.3C860.5,465.9,861.2,467.4,860.1,468.8z"/>
	<path class="st2" d="M429.4,828.3c1.3-0.1,2.5-0.2,3.7,0.5C431.8,828.7,430.5,829.2,429.4,828.3z"/>
	<path class="st2" d="M505,828.1c1.1-0.6,2.4-0.6,3.6-0.5C507.6,828.6,506.3,828,505,828.1z"/>
	<path class="st2" d="M422,827.6c1.3-0.1,2.5-0.2,3.7,0.5C424.5,828,423.1,828.6,422,827.6z"/>
	<path class="st2" d="M859.5,475.5c-0.1-1.2-0.1-2.4,0.5-3.6C859.9,473.1,860.4,474.4,859.5,475.5z"/>
	<path class="st2" d="M858.8,481.5c-0.1-1.2-0.1-2.4,0.5-3.5C859.2,479.2,859.7,480.4,858.8,481.5z"/>
	<path class="st3" d="M463.7,754c-91.5-2.5-168.6-34.9-230.7-99.8c-58.8-61.5-89.1-136.1-88.5-221.1
		c0.6-92.8,35.3-172.4,103.7-235.7c60.9-56.3,134-84.8,216.5-84.8c92.7,0.1,172.5,34.3,235.8,102.8c58,62.8,86.9,138,85.1,223.4
		C781.8,624.5,630.5,755.6,463.7,754z"/>
	<path class="st4" d="M779.3,926.8c1.6,0.5,1.3,1.5,1.5,3C779.8,928.7,779.4,928,779.3,926.8z"/>
	<path class="st5" d="M433.6,485.1c2.1,3.1,3.9,6.2,6,9c1.2,1.6,0.9,2.3-0.6,3.3c-11.8,8-23.5,16-35.2,24.1
		c-0.9,0.6-1.5,1.2-2.4-0.1c-3.5-5.2-7.2-10.3-7.8-17c-0.4-5.4,0.8-9.9,5.6-12.8c2.1-1.3,4.2-2.8,7-4.8c-2.1,0-3.2,0-4.4,0
		c-25.1-0.2-50.2,0.2-75.3-0.4c-2.8-0.1-3.5-0.8-3.3-3.6c0.9-14,0.8-28,0.6-42c0-2.9,0.5-4,3.8-3.9c15.4,0.2,30.9,0.2,46.3,0.1
		c15.9-0.1,31.7-1.2,47.5-2.7c9-0.8,15.7-6.1,22.2-11.3c18.1-14.3,25.5-33.3,19.9-55.8c-5.6-22.5-20.7-36.5-43.5-40.7
		c-13-2.4-26.3-1.9-39.5-1.9c-17.8,0.1-35.5-0.3-53.3-0.3c-2.7,0-3.3-0.9-3.2-3.4c0.2-12.7,0.2-25.3,0.1-38c0-2.6,0.7-3.4,3.3-3.4
		c38.2,0.1,76.4-0.2,114.7,0.2c12.1,0.1,22.8,5.2,32.5,12.6c32.1,24.9,48,57.4,44.4,98c-3.3,37.2-21.8,65.5-54.3,84.4
		C455.2,480.3,445,483.7,433.6,485.1z"/>
	<path class="st5" d="M249.3,457.5c0-43.7-0.1-87.3,0.1-131c0-14.4,0.7-28.9,1-43.3c0.1-2.7,0.8-3.8,3.8-3.8
		c17.9,0.2,35.8,0.1,53.7,0.1c4.2,0,4.3,0,4.3,4.4c0,22.8,0,45.5,0,68.3c0.1,40,0,80,0.5,120c0.3,27.7,0.8,55.3,0.1,83
		c-0.6,23.6,0.2,47.3-0.6,70.9c0,1.1-0.1,2.2-0.2,3.3c-0.4,5.1-0.4,5.1-5.6,5.2c-15.3,0.1-30.7,0.2-46,0.3c-2.7,0-5.3,0.1-8,0.3
		c-4,0.3-4.2,0.2-4.2-3.7c0-16.3,0-32.7,0-49C248.2,540.8,249.3,499.2,249.3,457.5C249.7,457.5,248.9,457.5,249.3,457.5z"/>
	<path class="st5" d="M249.3,457.5c0-0.2,0-0.5,0-0.7c0-43.5,2-86.8,2.2-130.2c0-14.4,0.7-28.9,1-43.3c0.1-2.7,0.8-3.8,3.8-3.8
		c17.9,0.2,35.8,0.1,53.7,0.1c4.2,0,4.3,0,4.3,4.4c0,22.8,0,45.5,0,68.3c0.1,40,0,80,0.5,120c0.3,27.7,0.8,55.3,0.1,83
		c-0.6,23.6,0.2,47.3-0.6,70.9c0,1.1-0.1,2.2-0.2,3.3c-0.4,5.1-0.4,5.1-5.6,5.2c-15.3,0.1-30.7,0.2-46,0.3c-2.7,0-5.3,0.1-8,0.3
		c-2.3,0.2-4.2-1.6-4.2-3.9c0-16.3,0-32.5,0-48.8C250.4,541.9,248.9,461.5,249.3,457.5z"/>
	<path class="st1" d="M701.3,277.2c-1,12.3-8,22.5-20.3,25.6c-9.2,2.3-16.9-0.6-23.9-6.4c-5.4-4.5-8.9-10.6-13.6-15.6
		c-17.5-18.4-36.2-35.3-58.3-48.3c-24.6-14.4-50.8-23.9-78.8-29.1c-14.3-2.7-23.3-12.2-23.9-26.8c-0.3-6,2-12,6.1-17
		c5.3-6.5,12.4-10,20.4-10.5c5.3-0.3,10.7,1.4,16,2.6c21.5,4.8,42.3,11.7,62.4,21c19.8,9.2,38.2,20.6,55.4,33.9
		c7.3,5.7,14.2,11.8,21.1,18.1c11.5,10.6,21.1,22.8,30.7,35C698.7,264.9,700.5,271,701.3,277.2z"/>
	<path class="st6" d="M594.9,641.8c-23.5-5.1-43.9-15.9-61-32.9c-6.4-6.4-12.4-13.2-16.6-21.2c-9.2-17.6-16.4-35.9-16.8-56.2
		c-1-50,20.5-87,64.2-111.1c12.4-6.8,25.9-10.1,39.8-12.2c2.2-0.3,2.9,0.3,2.8,2.6c-0.3,13.2-0.5,26.4-0.6,39.6c0,2.4-1.4,2.6-3,3
		c-21.4,4.4-37.7,16.2-49.2,34.6c-6,9.6-9,19.8-7.4,31.3c1.1,7.8,0.2,15.7,1.2,23.6c1.7,13.1,8.1,23.6,16.9,32.8
		c10.5,11,23.2,18.1,38.1,21.1c2.3,0.5,2.7,1.6,2.6,3.6c-0.1,13.8,0,27.5,0,41.3C603.4,643.7,597.5,643.7,594.9,641.8z"/>
	<path class="st6" d="M626.7,508c19.5,0,39.1,0,58.6,0c3.8,0,3.9-0.1,2.6-3.7c-9.7-28.5-29.1-46-59-51.4c-2.4-0.4-2.8-1.3-2.8-3.4
		c0-12.8,0.1-25.5-0.1-38.3c0-2.9,1-3.3,3.5-3.1c20.6,2.2,39.6,8.9,56.4,21.1c27.9,20.1,44.2,47.4,49.2,81.4
		c1.6,10.6,1.3,21.2,0.1,31.9c-0.3,2.7-1.2,3.8-4.3,3.8c-16-0.2-32-0.9-48-0.1c-30.3,1.6-60.6,0.2-90.8,0.7
		c-8.3,0.1-16.7-0.1-25-0.2c-0.9,0-2.6,0.6-2.3-1.3c1.2-8.8-0.2-17.5-0.1-26.3c0-2.7,0.1-5.3-0.5-8c-0.5-1.9,0.3-2.5,2.2-2.5
		c10.4-0.1,20.9-0.3,31.3-0.4C607.4,508.1,617,508.1,626.7,508C626.7,508.1,626.7,508.1,626.7,508z"/>
	<path class="st1" d="M384.5,201.4c-13.8-1-24.1-11.4-22.8-25.1c0.8-8.8,6-15.8,14.9-19c18.2-6.6,37.2-10.2,56.4-12.4
		c9.5-1.1,18.4,4.6,22.6,13.3c4,8.5,2.5,18.8-4.1,25.6c-3.5,3.6-7.9,6.1-13.1,6.7c-15.9,2-31.4,5.4-46.8,9.7
		C389,200.9,386.3,201.1,384.5,201.4z"/>
	<path class="st6" d="M626.7,641.8c0-13.6,0.1-27.1-0.1-40.7c0-2.5,0.7-3.3,3.2-3.7c13.8-2.2,26-7.9,36.5-17.2
		c1.5-1.3,2.8-2.2,5-2.2c16.2,0.3,32.4,0.5,48.6,0.7c3.9,0.1,4,0.1,2.1,3.4c-17.1,30.6-42.8,50.1-76.8,58.7
		c-1.4,0.4-2.8,0.7-4.2,1.1c-0.2,0.7-0.7,0.7-1.2,0.3c-3.9,0.4-7.9,0.9-11.8,1.3C627.3,643.1,626.5,642.8,626.7,641.8z"/>
	<path class="st5" d="M442.7,499.4c1.5,0.1,1.8,1.4,2.4,2.2c10.6,14.5,20.5,29.5,30.7,44.3c3.7,5.4,7.3,10.9,11.1,16.2
		c1.3,1.8,1,2.7-0.8,3.9c-11.9,8.1-23.8,16.2-35.7,24.4c-1.7,1.2-2.3,0.7-3.3-0.7c-14-20.9-28-41.8-42-62.7
		c-0.8-1.2-1.3-1.9,0.4-3.1c11.9-7.7,23.7-15.6,35.6-23.4C441.7,500.1,442.2,499.8,442.7,499.4z"/>
	<path class="st5" d="M470.1,623.1c-1,0.1-1.1-0.7-1.4-1.2c-5.9-8.8-11.8-17.7-17.8-26.6c-1-1.4-0.6-1.9,0.7-2.7
		c12.2-8,24.3-16,36.4-24c1.6-1.1,2.4-1.2,3.6,0.6c5.5,8.3,11.1,16.6,16.8,24.8c1.3,1.8,1,2.7-0.8,3.9
		c-12.1,8.1-24.1,16.3-36.2,24.4C471,622.5,470.6,622.8,470.1,623.1z"/>
	<path class="st5" d="M509.7,641.6c-2.1-4-5.2-6.4-9.9-7.4c-8.7-1.7-17.2-4-25.8-6.1c-1-0.3-2.4-0.4-2.7-1.6
		c-0.2-1.4,1.3-1.2,2.1-1.7c11.6-7.8,23.2-15.5,34.9-23.3c0.6-0.4,1.3-0.9,1.9-1.3c0.5-0.3,1.1-0.9,1.8-0.5c0.8,0.5,0.8,1.3,0.7,2.1
		c-1.6,8-1.5,16.1-2.3,24.2c-0.3,3.1-0.4,5.9,1.7,8.7c1.4,1.9,3.8,4.2,1.5,7.1c0.2-0.4,0,0.3,0.3,0c0.1-0.1,0.3,0.2,0,0.3
		C512.4,642.7,511,642.5,509.7,641.6z"/>
	<path class="st7" d="M509.7,641.6c1.3,0,2.5,0.1,3.8,0.1c9.7,0,19.3,0.1,29,0.1c0.8,0,1.6,0,2.3,0c0.8,0,1.2,0.3,1.2,1.2
		c0,0.9-0.4,1.2-1.2,1.2c-0.7,0-1.3,0-2,0c-14.9,0-29.8,0-44.6,0c-0.3,0-0.7,0-1,0c-1-0.2-2.6,0.6-2.5-1.2c0.1-1.6,1.7-1.1,2.7-1.1
		c3-0.1,6,0,9,0C507.5,641.7,508.6,641.6,509.7,641.6z"/>
	<path class="st8" d="M626.7,641.8c1.1,0,1.4,0.7,1.4,1.7c-0.4,0.7-1.1,0.7-1.8,0.7c-10.4,0-20.8,0-31.3,0c-0.9,0-1.9,0.1-2-1.1
		c-0.2-1.5,1.2-0.9,1.9-1.2c3.7,0,7.4,0,11.1,0C612.9,641.8,619.8,641.8,626.7,641.8z"/>
	<path class="st9" d="M639.9,642.1c0.4-0.1,0.8-0.2,1.2-0.3c10.2,0.1,20.4,0.1,30.5,0.2c0.7,0,1.3,0,2,0c0.7,0,1.4,0.2,1.4,1.1
		c-0.1,0.7-0.7,1-1.5,1c-0.3,0-0.7,0-1,0c-10.1,0-20.2,0-30.2,0C640.8,644.1,639.4,644.2,639.9,642.1z"/>
	<path class="st10" d="M569.7,641.8c3.5,0,7.1,0,10.6,0c0.7,0,1.6-0.2,1.7,1c0.1,1.3-0.7,1.4-1.7,1.4c-7.2,0-14.4,0-21.6,0
		c-0.7,0-1.6,0.2-1.7-1c-0.1-1.3,0.7-1.4,1.7-1.4C562.3,641.7,566,641.7,569.7,641.8C569.7,641.8,569.7,641.8,569.7,641.8z"/>
	<path class="st11" d="M448.7,560.3c-1.1,0-2.8-0.9-4.2-2.5c-2.6-2.8-4.5-6.1-6.5-9.2c-4.9-7.5-9.8-15-14.7-22.6
		c-1.4-2.1-2.5-4.3-1.6-6.9c0.8-2.4,2.6-3.9,5.1-4.2c3-0.4,5,1.4,6.7,3.6c6,8.3,12,16.5,17.9,24.8c1.7,2.3,3.4,4.7,4.6,7.3
		C458.1,555.2,454.7,560.3,448.7,560.3z"/>
</g>
</svg>
